<?xml version="1.0" encoding="utf-8"?>
<svg id="f9eb83fe-2109-496c-8de2-d29751931755" data-name="Layer 1" width="1371" height="1010" viewBox="100 50 978.961 721.169" xmlns="http://www.w3.org/2000/svg">
  <defs>
    <linearGradient id="b7f84a8b-804f-4004-8d61-2f9b427d4893" x1="785.51" y1="659.88" x2="938.51" y2="659.88" gradientUnits="userSpaceOnUse" gradientTransform="matrix(1, 0, 0, 1, 13.522953, -82.50401)">
      <stop offset="0" stop-color="gray" stop-opacity="0.25"/>
      <stop offset="0.54" stop-color="gray" stop-opacity="0.12"/>
      <stop offset="1" stop-color="gray" stop-opacity="0.1"/>
    </linearGradient>
  </defs>
  <title>authentication</title>
  <path d="M 1022.962 610.316 C 1022.962 610.316 1010.672 602.206 998.492 607.976 C 998.492 607.976 1002.242 615.196 1017.662 614.516 Z" fill="#f4a261"/>
  <path d="M 1039.802 597.076 C 1039.802 597.076 1038.892 584.966 1011.542 588.986 C 1011.542 588.986 1011.412 596.796 1021.012 600.496 C 1030.612 604.196 1035.012 601.076 1039.802 597.076 Z" fill="#f4a261"/>
  <path d="M 1069.832 50.186 L 108.952 50.186 C 104.225 50.186 100.392 54.018 100.392 58.746 L 100.392 83.686 L 1078.392 83.686 L 1078.392 58.746 C 1078.392 54.018 1074.56 50.186 1069.832 50.186 Z" fill="#3f3d56"/>
  <path d="M 100.392 83.686 L 100.392 644.926 C 100.392 654.458 108.12 662.186 117.652 662.186 L 1061.132 662.186 C 1070.665 662.186 1078.392 654.458 1078.392 644.926 L 1078.392 83.686 Z" fill="#fff"/>
  <circle cx="115.882" cy="66.686" r="4" fill="#fa5959" opacity="0.8"/>
  <circle cx="126.882" cy="66.686" r="4" fill="#fed253" opacity="0.8"/>
  <circle cx="137.882" cy="66.686" r="4" fill="#8ccf4d" opacity="0.8"/>
  <rect x="191.302" y="177.266" width="786" height="345.62" opacity="0.05"/>
  <rect x="197.302" y="179.886" width="774" height="338" fill="#3f3d56"/>
  <path d="M 408.302 266.876 C 349.028 266.876 311.981 331.043 341.619 382.376 C 371.256 433.709 445.349 433.709 474.986 382.376 C 481.745 370.67 485.302 357.392 485.302 343.876 C 485.302 301.35 450.828 266.876 408.302 266.876 Z M 422.112 345.726 L 422.112 382.186 L 394.892 382.186 L 394.892 345.726 C 381.052 335.249 383.743 313.718 399.737 306.97 C 415.73 300.222 433.031 313.318 430.878 330.543 C 430.124 336.579 426.963 342.054 422.112 345.726 Z" fill="#f4a261"/>
  <path d="M 408.302 266.876 C 349.028 266.876 311.981 331.043 341.619 382.376 C 371.256 433.709 445.349 433.709 474.986 382.376 C 481.745 370.67 485.302 357.392 485.302 343.876 C 485.302 301.35 450.828 266.876 408.302 266.876 Z M 422.112 345.726 L 422.112 382.186 L 394.892 382.186 L 394.892 345.726 C 381.052 335.249 383.743 313.718 399.737 306.97 C 415.73 300.222 433.031 313.318 430.878 330.543 C 430.124 336.579 426.963 342.054 422.112 345.726 Z" opacity="0.05"/>
  <path d="M 408.302 244.876 C 332.092 244.876 284.461 327.376 322.566 393.376 C 360.671 459.376 455.934 459.376 494.039 393.376 C 502.728 378.326 507.302 361.254 507.302 343.876 C 507.302 289.2 462.979 244.876 408.302 244.876 Z M 426.052 346.256 L 426.052 393.126 L 391.052 393.126 L 391.052 346.256 C 373.251 332.784 376.709 305.094 397.276 296.413 C 417.843 287.733 440.095 304.572 437.329 326.724 C 436.359 334.49 432.293 341.533 426.052 346.256 Z" fill="#f4a261"/>
  <rect x="548.302" y="330.886" width="320" height="34" fill="#fff"/>
  <rect x="799.302" y="392.886" width="69" height="34" fill="#f4a261"/>
  <path d="M 579.802 347.376 L 574.012 347.376 L 579.162 342.236 C 579.354 342.038 579.354 341.724 579.162 341.526 C 578.967 341.329 578.648 341.329 578.452 341.526 L 573.302 346.676 L 573.302 340.876 C 573.302 340.6 573.079 340.376 572.802 340.376 C 572.529 340.381 572.308 340.602 572.302 340.876 L 572.302 346.676 L 567.162 341.496 C 566.967 341.299 566.648 341.299 566.452 341.496 C 566.261 341.694 566.261 342.008 566.452 342.206 L 571.602 347.346 L 565.802 347.346 C 565.529 347.351 565.308 347.572 565.302 347.846 C 565.302 348.122 565.526 348.346 565.802 348.346 L 571.602 348.346 L 566.452 353.496 C 566.261 353.694 566.261 354.008 566.452 354.206 C 566.652 354.393 566.963 354.393 567.162 354.206 L 572.302 349.056 L 572.302 354.846 C 572.302 355.122 572.526 355.346 572.802 355.346 C 573.079 355.346 573.302 355.122 573.302 354.846 L 573.302 349.056 L 578.452 354.206 C 578.652 354.393 578.963 354.393 579.162 354.206 C 579.354 354.008 579.354 353.694 579.162 353.496 L 574.012 348.346 L 579.802 348.346 C 580.079 348.346 580.302 348.122 580.302 347.846 C 580.287 347.581 580.067 347.375 579.802 347.376 Z" fill="#f4a261"/>
  <path d="M 600.802 347.376 L 595.012 347.376 L 600.162 342.236 C 600.354 342.038 600.354 341.724 600.162 341.526 C 599.967 341.329 599.648 341.329 599.452 341.526 L 594.302 346.676 L 594.302 340.876 C 594.302 340.6 594.079 340.376 593.802 340.376 C 593.529 340.381 593.308 340.602 593.302 340.876 L 593.302 346.676 L 588.162 341.496 C 587.967 341.299 587.648 341.299 587.452 341.496 C 587.261 341.694 587.261 342.008 587.452 342.206 L 592.602 347.346 L 586.802 347.346 C 586.529 347.351 586.308 347.572 586.302 347.846 C 586.302 348.122 586.526 348.346 586.802 348.346 L 592.602 348.346 L 587.452 353.496 C 587.261 353.694 587.261 354.008 587.452 354.206 C 587.652 354.393 587.963 354.393 588.162 354.206 L 593.302 349.056 L 593.302 354.846 C 593.302 355.122 593.526 355.346 593.802 355.346 C 594.079 355.346 594.302 355.122 594.302 354.846 L 594.302 349.056 L 599.452 354.206 C 599.652 354.393 599.963 354.393 600.162 354.206 C 600.354 354.008 600.354 353.694 600.162 353.496 L 595.012 348.346 L 600.802 348.346 C 601.079 348.346 601.302 348.122 601.302 347.846 C 601.287 347.581 601.067 347.375 600.802 347.376 Z" fill="#f4a261"/>
  <path d="M 621.802 347.376 L 616.012 347.376 L 621.162 342.236 C 621.354 342.038 621.354 341.724 621.162 341.526 C 620.967 341.329 620.648 341.329 620.452 341.526 L 615.302 346.676 L 615.302 340.876 C 615.302 340.6 615.079 340.376 614.802 340.376 C 614.529 340.381 614.308 340.602 614.302 340.876 L 614.302 346.676 L 609.162 341.496 C 608.967 341.299 608.648 341.299 608.452 341.496 C 608.261 341.694 608.261 342.008 608.452 342.206 L 613.602 347.346 L 607.802 347.346 C 607.529 347.351 607.308 347.572 607.302 347.846 C 607.302 348.122 607.526 348.346 607.802 348.346 L 613.602 348.346 L 608.452 353.496 C 608.261 353.694 608.261 354.008 608.452 354.206 C 608.652 354.393 608.963 354.393 609.162 354.206 L 614.302 349.056 L 614.302 354.846 C 614.302 355.122 614.526 355.346 614.802 355.346 C 615.079 355.346 615.302 355.122 615.302 354.846 L 615.302 349.056 L 620.452 354.206 C 620.652 354.393 620.963 354.393 621.162 354.206 C 621.354 354.008 621.354 353.694 621.162 353.496 L 616.012 348.346 L 621.802 348.346 C 622.079 348.346 622.302 348.122 622.302 347.846 C 622.287 347.581 622.067 347.375 621.802 347.376 Z" fill="#f4a261"/>
  <path d="M 642.802 347.376 L 637.012 347.376 L 642.162 342.236 C 642.354 342.038 642.354 341.724 642.162 341.526 C 641.967 341.329 641.648 341.329 641.452 341.526 L 636.302 346.676 L 636.302 340.876 C 636.302 340.6 636.079 340.376 635.802 340.376 C 635.529 340.381 635.308 340.602 635.302 340.876 L 635.302 346.676 L 630.162 341.496 C 629.967 341.299 629.648 341.299 629.452 341.496 C 629.261 341.694 629.261 342.008 629.452 342.206 L 634.602 347.346 L 628.802 347.346 C 628.529 347.351 628.308 347.572 628.302 347.846 C 628.302 348.122 628.526 348.346 628.802 348.346 L 634.602 348.346 L 629.452 353.496 C 629.261 353.694 629.261 354.008 629.452 354.206 C 629.652 354.393 629.963 354.393 630.162 354.206 L 635.302 349.056 L 635.302 354.846 C 635.302 355.122 635.526 355.346 635.802 355.346 C 636.079 355.346 636.302 355.122 636.302 354.846 L 636.302 349.056 L 641.452 354.206 C 641.652 354.393 641.963 354.393 642.162 354.206 C 642.354 354.008 642.354 353.694 642.162 353.496 L 637.012 348.346 L 642.802 348.346 C 643.079 348.346 643.302 348.122 643.302 347.846 C 643.287 347.581 643.067 347.375 642.802 347.376 Z" fill="#f4a261"/>
  <path d="M 663.802 347.376 L 658.012 347.376 L 663.162 342.236 C 663.354 342.038 663.354 341.724 663.162 341.526 C 662.967 341.329 662.648 341.329 662.452 341.526 L 657.302 346.676 L 657.302 340.876 C 657.302 340.6 657.079 340.376 656.802 340.376 C 656.529 340.381 656.308 340.602 656.302 340.876 L 656.302 346.676 L 651.162 341.496 C 650.967 341.299 650.648 341.299 650.452 341.496 C 650.261 341.694 650.261 342.008 650.452 342.206 L 655.602 347.346 L 649.802 347.346 C 649.529 347.351 649.308 347.572 649.302 347.846 C 649.302 348.122 649.526 348.346 649.802 348.346 L 655.602 348.346 L 650.452 353.496 C 650.261 353.694 650.261 354.008 650.452 354.206 C 650.652 354.393 650.963 354.393 651.162 354.206 L 656.302 349.056 L 656.302 354.846 C 656.302 355.122 656.526 355.346 656.802 355.346 C 657.079 355.346 657.302 355.122 657.302 354.846 L 657.302 349.056 L 662.452 354.206 C 662.652 354.393 662.963 354.393 663.162 354.206 C 663.354 354.008 663.354 353.694 663.162 353.496 L 658.012 348.346 L 663.802 348.346 C 664.079 348.346 664.302 348.122 664.302 347.846 C 664.287 347.581 664.067 347.375 663.802 347.376 Z" fill="#f4a261"/>
  <path d="M 684.802 347.376 L 679.012 347.376 L 684.162 342.236 C 684.354 342.038 684.354 341.724 684.162 341.526 C 683.967 341.329 683.648 341.329 683.452 341.526 L 678.302 346.676 L 678.302 340.876 C 678.302 340.6 678.079 340.376 677.802 340.376 C 677.529 340.381 677.308 340.602 677.302 340.876 L 677.302 346.676 L 672.162 341.496 C 671.967 341.299 671.648 341.299 671.452 341.496 C 671.261 341.694 671.261 342.008 671.452 342.206 L 676.602 347.346 L 670.802 347.346 C 670.529 347.351 670.308 347.572 670.302 347.846 C 670.302 348.122 670.526 348.346 670.802 348.346 L 676.602 348.346 L 671.452 353.496 C 671.261 353.694 671.261 354.008 671.452 354.206 C 671.652 354.393 671.963 354.393 672.162 354.206 L 677.302 349.056 L 677.302 354.846 C 677.302 355.122 677.526 355.346 677.802 355.346 C 678.079 355.346 678.302 355.122 678.302 354.846 L 678.302 349.056 L 683.452 354.206 C 683.652 354.393 683.963 354.393 684.162 354.206 C 684.354 354.008 684.354 353.694 684.162 353.496 L 679.012 348.346 L 684.802 348.346 C 685.079 348.346 685.302 348.122 685.302 347.846 C 685.287 347.581 685.067 347.375 684.802 347.376 Z" fill="#f4a261"/>
  <path d="M 705.802 347.376 L 700.012 347.376 L 705.162 342.236 C 705.354 342.038 705.354 341.724 705.162 341.526 C 704.967 341.329 704.648 341.329 704.452 341.526 L 699.302 346.676 L 699.302 340.876 C 699.302 340.6 699.079 340.376 698.802 340.376 C 698.529 340.381 698.308 340.602 698.302 340.876 L 698.302 346.676 L 693.162 341.496 C 692.967 341.299 692.648 341.299 692.452 341.496 C 692.261 341.694 692.261 342.008 692.452 342.206 L 697.602 347.346 L 691.802 347.346 C 691.529 347.351 691.308 347.572 691.302 347.846 C 691.302 348.122 691.526 348.346 691.802 348.346 L 697.602 348.346 L 692.452 353.496 C 692.261 353.694 692.261 354.008 692.452 354.206 C 692.652 354.393 692.963 354.393 693.162 354.206 L 698.302 349.056 L 698.302 354.846 C 698.302 355.122 698.526 355.346 698.802 355.346 C 699.079 355.346 699.302 355.122 699.302 354.846 L 699.302 349.056 L 704.452 354.206 C 704.652 354.393 704.963 354.393 705.162 354.206 C 705.354 354.008 705.354 353.694 705.162 353.496 L 700.012 348.346 L 705.802 348.346 C 706.079 348.346 706.302 348.122 706.302 347.846 C 706.287 347.581 706.067 347.375 705.802 347.376 Z" fill="#f4a261"/>
  <path d="M 726.802 347.376 L 721.012 347.376 L 726.162 342.236 C 726.354 342.038 726.354 341.724 726.162 341.526 C 725.967 341.329 725.648 341.329 725.452 341.526 L 720.302 346.676 L 720.302 340.876 C 720.302 340.6 720.079 340.376 719.802 340.376 C 719.529 340.381 719.308 340.602 719.302 340.876 L 719.302 346.676 L 714.162 341.496 C 713.967 341.299 713.648 341.299 713.452 341.496 C 713.261 341.694 713.261 342.008 713.452 342.206 L 718.602 347.346 L 712.802 347.346 C 712.529 347.351 712.308 347.572 712.302 347.846 C 712.302 348.122 712.526 348.346 712.802 348.346 L 718.602 348.346 L 713.452 353.496 C 713.261 353.694 713.261 354.008 713.452 354.206 C 713.652 354.393 713.963 354.393 714.162 354.206 L 719.302 349.056 L 719.302 354.846 C 719.302 355.122 719.526 355.346 719.802 355.346 C 720.079 355.346 720.302 355.122 720.302 354.846 L 720.302 349.056 L 725.452 354.206 C 725.652 354.393 725.963 354.393 726.162 354.206 C 726.354 354.008 726.354 353.694 726.162 353.496 L 721.012 348.346 L 726.802 348.346 C 727.079 348.346 727.302 348.122 727.302 347.846 C 727.287 347.581 727.067 347.375 726.802 347.376 Z" fill="#f4a261"/>
  <path d="M 747.802 347.376 L 742.012 347.376 L 747.162 342.236 C 747.354 342.038 747.354 341.724 747.162 341.526 C 746.967 341.329 746.648 341.329 746.452 341.526 L 741.302 346.676 L 741.302 340.876 C 741.302 340.6 741.079 340.376 740.802 340.376 C 740.529 340.381 740.308 340.602 740.302 340.876 L 740.302 346.676 L 735.162 341.496 C 734.967 341.299 734.648 341.299 734.452 341.496 C 734.261 341.694 734.261 342.008 734.452 342.206 L 739.602 347.346 L 733.802 347.346 C 733.529 347.351 733.308 347.572 733.302 347.846 C 733.302 348.122 733.526 348.346 733.802 348.346 L 739.602 348.346 L 734.452 353.496 C 734.261 353.694 734.261 354.008 734.452 354.206 C 734.652 354.393 734.963 354.393 735.162 354.206 L 740.302 349.056 L 740.302 354.846 C 740.302 355.122 740.526 355.346 740.802 355.346 C 741.079 355.346 741.302 355.122 741.302 354.846 L 741.302 349.056 L 746.452 354.206 C 746.652 354.393 746.963 354.393 747.162 354.206 C 747.354 354.008 747.354 353.694 747.162 353.496 L 742.012 348.346 L 747.802 348.346 C 748.079 348.346 748.302 348.122 748.302 347.846 C 748.287 347.581 748.067 347.375 747.802 347.376 Z" fill="#f4a261"/>
  <path d="M 768.802 347.376 L 763.012 347.376 L 768.162 342.236 C 768.354 342.038 768.354 341.724 768.162 341.526 C 767.967 341.329 767.648 341.329 767.452 341.526 L 762.302 346.676 L 762.302 340.876 C 762.302 340.6 762.079 340.376 761.802 340.376 C 761.529 340.381 761.308 340.602 761.302 340.876 L 761.302 346.676 L 756.162 341.496 C 755.967 341.299 755.648 341.299 755.452 341.496 C 755.261 341.694 755.261 342.008 755.452 342.206 L 760.602 347.346 L 754.802 347.346 C 754.529 347.351 754.308 347.572 754.302 347.846 C 754.302 348.122 754.526 348.346 754.802 348.346 L 760.602 348.346 L 755.452 353.496 C 755.261 353.694 755.261 354.008 755.452 354.206 C 755.652 354.393 755.963 354.393 756.162 354.206 L 761.302 349.056 L 761.302 354.846 C 761.302 355.122 761.526 355.346 761.802 355.346 C 762.079 355.346 762.302 355.122 762.302 354.846 L 762.302 349.056 L 767.452 354.206 C 767.652 354.393 767.963 354.393 768.162 354.206 C 768.354 354.008 768.354 353.694 768.162 353.496 L 763.012 348.346 L 768.802 348.346 C 769.079 348.346 769.302 348.122 769.302 347.846 C 769.287 347.581 769.067 347.375 768.802 347.376 Z" fill="#f4a261"/>
  <path d="M 789.802 347.376 L 784.012 347.376 L 789.162 342.236 C 789.354 342.038 789.354 341.724 789.162 341.526 C 788.967 341.329 788.648 341.329 788.452 341.526 L 783.302 346.676 L 783.302 340.876 C 783.302 340.6 783.079 340.376 782.802 340.376 C 782.529 340.381 782.308 340.602 782.302 340.876 L 782.302 346.676 L 777.162 341.496 C 776.967 341.299 776.648 341.299 776.452 341.496 C 776.261 341.694 776.261 342.008 776.452 342.206 L 781.602 347.346 L 775.802 347.346 C 775.529 347.351 775.308 347.572 775.302 347.846 C 775.302 348.122 775.526 348.346 775.802 348.346 L 781.602 348.346 L 776.452 353.496 C 776.261 353.694 776.261 354.008 776.452 354.206 C 776.652 354.393 776.963 354.393 777.162 354.206 L 782.302 349.056 L 782.302 354.846 C 782.302 355.122 782.526 355.346 782.802 355.346 C 783.079 355.346 783.302 355.122 783.302 354.846 L 783.302 349.056 L 788.452 354.206 C 788.652 354.393 788.963 354.393 789.162 354.206 C 789.354 354.008 789.354 353.694 789.162 353.496 L 784.012 348.346 L 789.802 348.346 C 790.079 348.346 790.302 348.122 790.302 347.846 C 790.287 347.581 790.067 347.375 789.802 347.376 Z" fill="#f4a261"/>
  <path d="M 950.792 469.026 C 950.764 467.817 950.613 466.614 950.342 465.436 C 949.442 462.056 947.412 457.966 944.072 456.946 C 940.624 455.89 937.293 454.483 934.132 452.746 C 933.532 442.026 935.992 431.056 933.312 420.666 C 932.312 416.866 930.662 413.226 930.222 409.336 C 929.672 404.496 930.992 399.336 929.062 394.876 C 927.542 391.356 924.202 388.876 920.612 387.576 C 917.022 386.276 913.152 385.926 909.342 385.576 C 904.542 385.186 889.002 383.346 883.582 387.636 L 883.582 387.636 C 883.209 387.926 882.873 388.262 882.582 388.636 L 882.582 388.636 C 882.463 388.801 882.356 388.975 882.262 389.156 L 882.212 389.236 C 882.104 389.444 882.014 389.662 881.942 389.886 L 881.942 389.886 C 881.867 390.131 881.81 390.382 881.772 390.636 C 881.772 390.716 881.772 390.796 881.772 390.876 C 881.772 390.956 881.772 391.226 881.772 391.406 L 881.772 391.676 C 881.772 391.856 881.772 392.036 881.772 392.226 C 881.772 392.416 881.772 392.366 881.772 392.436 C 881.842 393.336 881.972 394.236 881.972 395.126 C 881.983 395.569 881.943 396.012 881.852 396.446 C 881.519 397.625 880.955 398.727 880.192 399.686 L 880.192 399.686 L 880.012 399.946 C 879.902 400.106 879.792 400.256 879.692 400.416 C 879.592 400.576 879.512 400.696 879.432 400.836 C 879.352 400.976 879.272 401.066 879.202 401.196 C 879.106 401.361 879.019 401.531 878.942 401.706 C 878.942 401.806 878.832 401.896 878.792 401.996 C 878.667 402.266 878.567 402.547 878.492 402.836 C 878.258 403.705 878.238 404.617 878.432 405.496 C 878.702 406.618 879.166 407.684 879.802 408.646 C 880.052 409.056 880.322 409.456 880.602 409.856 L 881.302 410.806 C 881.172 411.734 881.102 412.669 881.092 413.606 C 881.093 419.95 884.005 425.944 888.992 429.866 C 889.389 434.089 889.345 438.342 888.862 442.556 C 888.772 443.436 888.662 444.326 888.542 445.206 C 888.422 446.086 888.332 446.666 888.212 447.396 C 886.749 447.605 885.258 447.493 883.842 447.066 C 883.19 446.775 882.522 446.518 881.842 446.296 C 878.932 445.566 875.962 448.466 873.082 447.586 C 873.082 447.726 873.002 447.856 872.952 447.986 C 872.351 447.612 871.66 447.408 870.952 447.396 C 869.242 447.316 867.852 446.076 866.612 444.906 L 862.802 441.316 C 862.554 441.096 862.333 440.848 862.142 440.576 C 861.938 440.187 861.783 439.774 861.682 439.346 C 861.042 437.276 859.492 435.626 857.992 434.056 C 857.708 433.698 857.331 433.425 856.902 433.266 C 856.737 433.241 856.568 433.241 856.402 433.266 C 856.3 433.126 856.19 432.993 856.072 432.866 C 855.814 432.569 855.536 432.288 855.242 432.026 C 853.422 430.346 853.242 428.906 851.662 427.026 C 850.284 425.233 849.035 423.345 847.922 421.376 C 847.792 420.326 847.612 419.246 847.392 418.156 C 846.888 415.66 846.155 413.217 845.202 410.856 L 843.202 406.426 L 842.972 406.656 C 841.522 404.496 839.972 403.316 838.582 403.596 C 836.252 404.076 835.102 408.596 835.472 414.506 L 836.272 420.506 C 836.272 420.656 836.342 420.806 836.382 420.956 C 836.239 421.667 836.165 422.39 836.162 423.116 C 836.162 423.956 836.942 424.576 837.352 425.326 C 838.009 426.342 838.356 427.526 838.352 428.736 C 838.302 429.166 838.172 429.576 838.152 429.996 C 838.207 430.935 838.534 431.839 839.092 432.596 L 844.092 440.996 L 845.092 442.756 L 845.152 442.836 C 845.468 443.45 845.928 443.978 846.492 444.376 C 846.688 446.479 847.247 448.533 848.142 450.446 C 848.312 450.826 848.502 451.186 848.702 451.546 C 850.047 453.756 851.63 455.811 853.422 457.676 L 855.802 460.346 C 858.152 462.966 860.502 465.596 863.052 468.016 C 863.965 468.987 865.068 469.76 866.292 470.286 C 867.513 470.774 868.902 470.572 869.932 469.756 C 869.932 470.996 869.932 472.236 869.932 473.476 C 871.538 473.575 872.435 475.375 871.546 476.716 C 871.535 476.733 871.524 476.749 871.512 476.766 C 869.412 482.156 867.292 487.596 864.112 492.426 C 866.357 493.754 868.438 495.342 870.312 497.156 C 871.529 498.504 872.611 499.967 873.542 501.526 C 873.632 502.266 873.702 502.996 873.742 503.726 C 874.482 515.646 869.872 527.476 865.742 538.836 C 864.552 542.056 863.252 545.426 863.352 548.776 C 862.569 549.259 861.82 549.797 861.112 550.386 C 861.932 552.526 861.612 554.436 861.522 556.726 C 861.493 558.099 861.211 559.454 860.692 560.726 C 860.258 561.607 859.777 562.465 859.252 563.296 C 856.662 567.866 856.092 573.296 855.572 578.516 C 855.262 581.666 856.482 585.516 855.052 588.336 C 852.582 593.176 850.392 598.336 850.052 603.716 C 850.041 604.926 849.886 606.131 849.592 607.306 C 849.282 608.306 848.732 609.156 848.452 610.136 C 848.164 611.449 848.097 612.801 848.252 614.136 C 848.443 618.929 847.73 623.716 846.152 628.246 C 844.902 631.816 843.522 635.636 844.502 639.306 C 842.09 641.84 840.6 645.112 840.272 648.596 C 840.247 649.487 840.14 650.374 839.952 651.246 C 839.647 652.137 839.244 652.992 838.752 653.796 C 836.739 657.462 835.797 661.62 836.032 665.796 C 833.032 669.866 831.532 674.886 830.642 679.876 C 829.752 684.866 829.362 689.946 828.222 694.876 C 826.702 701.396 823.952 707.986 823.412 714.666 C 820.172 716.736 818.772 720.746 818.152 724.536 C 817.532 728.326 817.432 732.306 815.842 735.806 C 815.022 737.626 813.842 739.256 813.062 741.116 C 812.515 742.597 812.114 744.127 811.862 745.686 C 811.382 748.126 810.962 750.846 811.552 753.186 C 810.704 754.084 809.714 754.838 808.622 755.416 C 808.782 754.796 808.912 754.176 809.022 753.546 C 806.442 755.886 801.762 755.066 799.702 757.876 C 798.417 759.759 798.86 762.323 800.702 763.666 C 801.347 764.059 802.044 764.358 802.772 764.556 C 807.772 766.156 812.912 767.766 818.052 766.916 C 818.66 766.85 819.249 766.663 819.782 766.366 C 820.451 765.874 821.001 765.238 821.392 764.506 C 822.162 763.286 822.932 762.066 823.692 760.846 C 825.534 761.396 827.408 761.833 829.302 762.156 C 829.492 763.756 829.632 765.356 829.702 766.956 C 830.702 767.156 832.042 767.216 832.512 766.286 C 832.655 765.934 832.713 765.554 832.682 765.176 C 832.682 764.466 832.782 763.526 832.842 762.566 L 833.042 762.566 C 836.093 762.689 839.129 762.075 841.892 760.776 C 840.822 751.916 844.352 743.256 847.412 734.876 C 850.642 726.056 853.412 717.076 856.202 708.096 C 858.202 701.776 860.412 695.656 862.372 689.326 C 864.839 681.326 867.316 673.326 869.802 665.326 C 870.882 661.806 871.972 658.326 873.212 654.826 C 875.823 647.744 878.92 640.85 882.482 634.196 C 883.482 632.306 884.482 630.436 885.302 628.476 C 886.302 626.086 887.012 623.586 887.812 621.116 C 889.556 616.048 891.654 611.109 894.092 606.336 C 894.162 606.206 894.212 606.086 894.282 605.966 C 895.092 609.276 895.902 612.636 896.442 615.966 C 897.173 620.049 897.231 624.224 896.612 628.326 C 896.132 631.116 895.222 633.876 895.332 636.706 C 895.482 640.616 897.572 644.166 898.602 647.936 C 899.266 650.757 899.642 653.639 899.722 656.536 C 900.002 661.036 902.442 666.086 900.722 670.256 C 895.372 683.466 897.962 698.386 894.912 712.256 C 893.342 719.376 888.532 726.066 888.912 733.346 C 889.179 738.513 889.632 743.666 890.272 748.806 C 890.427 750.428 890.849 752.013 891.522 753.496 C 891.921 754.276 892.379 755.025 892.892 755.736 C 892.452 755.906 892.082 756.356 891.762 757.306 C 890.942 759.806 891.762 762.906 893.982 764.306 C 894.887 764.79 895.862 765.127 896.872 765.306 C 898.232 765.692 899.639 765.888 901.052 765.886 C 901.492 765.862 901.93 765.809 902.362 765.726 C 903.908 766.375 905.487 766.943 907.092 767.426 C 907.092 767.836 907.172 768.246 907.222 768.656 C 907.228 769.089 907.417 769.5 907.742 769.786 C 907.992 769.902 908.268 769.951 908.542 769.926 L 913.972 769.926 C 913.972 769.476 913.972 769.016 913.972 768.566 C 915.229 768.697 916.482 768.29 917.422 767.446 C 917.903 766.834 918.245 766.124 918.422 765.366 C 919.902 760.346 921.372 755.323 922.832 750.296 C 924.583 744.74 925.312 738.912 924.982 733.096 C 923.052 714.666 927.292 696.176 925.912 677.696 C 925.082 666.588 925.653 655.421 927.612 644.456 C 928.062 641.976 928.612 639.456 928.812 636.986 C 929.252 632.326 928.712 627.616 929.042 622.986 C 929.152 621.366 929.372 619.756 929.572 618.146 C 930.943 608.153 931.661 598.082 931.722 587.996 C 931.692 584.654 931.485 581.316 931.102 577.996 C 932.145 577.73 933.091 577.176 933.832 576.396 C 934.722 575.236 934.492 573.606 934.482 572.126 C 934.482 568.586 935.972 565.246 937.172 561.906 C 938.713 557.299 939.975 552.604 940.952 547.846 C 941.986 544.012 942.55 540.066 942.632 536.096 C 942.632 535.696 942.612 535.296 942.572 534.896 C 942.949 534.635 943.264 534.293 943.492 533.896 C 943.754 533.31 943.916 532.685 943.972 532.046 C 944.332 529.496 944.702 526.936 945.062 524.376 C 945.329 522.543 945.592 520.713 945.852 518.886 L 949.032 496.696 C 949.302 494.766 949.582 492.846 949.852 490.926 L 950.682 485.186 C 950.772 484.506 950.872 483.826 950.942 483.186 C 953.382 479.106 951.052 473.666 950.792 469.026 Z M 924.262 552.106 C 923.082 549.306 921.982 546.436 922.262 543.416 L 922.152 543.416 C 922.416 542.487 922.37 541.497 922.022 540.596 C 921.712 539.866 921.172 539.246 920.842 538.516 C 920.488 537.625 920.305 536.675 920.302 535.716 C 920.054 529.634 920.534 523.544 921.732 517.576 C 921.862 516.876 922.002 516.166 922.132 515.466 C 922.552 515.224 922.936 514.924 923.272 514.576 C 923.799 513.976 924.233 513.302 924.562 512.576 C 925.692 510.306 926.722 507.996 927.672 505.646 C 927.982 504.886 928.432 504.006 929.202 503.816 C 929.042 509.666 929.642 515.636 927.262 520.916 C 926.81 521.767 926.474 522.675 926.262 523.616 C 926.042 525.106 926.662 526.616 926.442 528.096 C 926.332 528.866 926.002 529.576 925.872 530.336 C 925.672 531.095 925.893 531.904 926.452 532.456 C 926.585 532.549 926.73 532.623 926.882 532.676 C 926.822 533.076 926.772 533.486 926.732 533.876 C 926.652 534.696 926.612 535.466 926.562 535.946 C 926.332 538.392 926.242 540.849 926.292 543.306 C 926.292 545.956 926.392 548.606 926.352 551.306 C 926.389 552.081 926.26 552.855 925.972 553.576 C 925.774 553.948 925.518 554.285 925.212 554.576 C 924.922 553.676 924.602 552.886 924.262 552.106 Z" fill="url(#b7f84a8b-804f-4004-8d61-2f9b427d4893)"/>
  <ellipse cx="828.59" cy="502.96" rx="5.64" ry="15.97" transform="matrix(0.979645, -0.200736, 0.200736, 0.979645, -70.567376, 94.035873)" fill="#fbbebe"/>
  <path d="M 891.922 757.496 C 891.102 759.976 891.922 763.076 894.142 764.426 C 895.042 764.905 896.01 765.243 897.012 765.426 C 898.369 765.809 899.773 766.001 901.182 765.996 C 902.912 765.916 904.572 765.236 906.302 764.996 C 906.502 764.946 906.713 764.974 906.892 765.076 C 907.068 765.264 907.149 765.521 907.112 765.776 C 907.131 766.759 907.205 767.741 907.332 768.716 C 907.335 769.15 907.525 769.561 907.852 769.846 C 908.102 769.962 908.378 770.011 908.652 769.986 L 914.072 769.986 C 914.195 765.224 913.674 760.468 912.522 755.846 C 912.447 755.492 912.312 755.154 912.122 754.846 C 911.663 754.342 911.058 753.993 910.392 753.846 C 909.067 753.295 907.636 753.045 906.202 753.116 C 904.452 753.346 902.992 754.476 901.502 755.416 C 900.012 756.356 897.982 757.186 896.172 756.706 C 894.362 756.226 892.852 754.716 891.922 757.496 Z" fill="#3f3d56"/>
  <path d="M 812.342 753.106 C 810.819 754.737 808.95 756.008 806.872 756.826 L 805.952 757.266 C 805.825 757.314 805.717 757.402 805.642 757.516 C 805.607 757.673 805.644 757.838 805.742 757.966 C 807.315 760.399 810.314 761.49 813.082 760.636 C 813.678 760.487 814.23 760.199 814.692 759.796 C 815.455 758.892 815.891 757.758 815.932 756.576 C 816.235 755.357 816.183 754.076 815.782 752.886 C 814.392 749.756 813.882 751.176 812.342 753.106 Z" fill="#fbbebe"/>
  <path d="M 833.122 765.426 C 833.153 765.804 833.095 766.184 832.952 766.536 C 832.482 767.456 831.172 767.406 830.152 767.206 C 829.998 763.813 829.587 760.437 828.922 757.106 C 826.982 757.016 825.582 758.856 824.542 760.506 L 821.862 764.756 C 821.475 765.488 820.928 766.123 820.262 766.616 C 819.727 766.909 819.139 767.096 818.532 767.166 C 813.412 768.016 808.242 766.406 803.302 764.806 C 802.575 764.611 801.878 764.314 801.232 763.926 C 799.4 762.581 798.959 760.028 800.232 758.146 C 802.302 755.346 806.952 756.146 809.532 753.826 C 809.263 755.458 808.821 757.057 808.212 758.596 C 811.662 758.076 813.982 754.916 816.762 752.806 C 817.461 752.213 818.302 751.813 819.202 751.646 C 819.876 751.589 820.555 751.661 821.202 751.856 C 824.408 752.663 827.407 754.139 830.002 756.186 C 831.052 757.016 832.692 758.186 833.152 759.466 C 833.642 760.996 833.122 763.796 833.122 765.426 Z" fill="#3f3d56"/>
  <circle cx="901.912" cy="414.826" r="20.66" fill="#fbbebe"/>
  <path d="M 942.612 536.806 C 942.529 540.756 941.968 544.681 940.942 548.496 C 939.964 553.234 938.702 557.909 937.162 562.496 C 935.972 565.826 934.482 569.166 934.492 572.696 C 934.492 574.166 934.732 575.796 933.832 576.956 C 933.031 577.77 932.021 578.348 930.912 578.626 C 929.791 578.923 928.878 579.736 928.452 580.816 C 927.514 579.413 926.811 577.866 926.372 576.236 C 924.579 570.743 922.912 565.219 921.372 559.666 C 921.086 559.017 921.139 558.269 921.512 557.666 C 921.766 557.445 922.062 557.279 922.382 557.176 C 923.407 556.758 924.346 556.154 925.152 555.396 C 925.531 555.06 925.843 554.656 926.072 554.206 C 926.363 553.489 926.496 552.718 926.462 551.946 C 926.462 549.296 926.462 546.656 926.392 544.006 C 926.351 541.559 926.444 539.112 926.672 536.676 C 926.672 536.196 926.762 535.426 926.842 534.606 C 926.992 533.036 927.292 531.216 928.142 530.606 C 929.412 529.756 933.212 530.896 934.652 531.096 C 937.132 531.436 939.652 531.836 942.072 532.306 C 942.424 533.78 942.605 535.29 942.612 536.806 Z" fill="#3f3d56"/>
  <path d="M 859.192 437.956 C 858.392 439.556 856.472 440.326 854.992 441.336 L 849.922 444.816 C 849.238 445.433 848.331 445.743 847.412 445.676 C 846.579 445.368 845.905 444.737 845.542 443.926 C 845.546 443.899 845.546 443.872 845.542 443.846 L 844.492 442.086 L 839.492 433.706 C 838.937 432.955 838.613 432.058 838.562 431.126 C 838.562 430.696 838.712 430.296 838.752 429.866 C 838.766 428.658 838.418 427.474 837.752 426.466 C 837.352 425.716 836.552 425.096 836.572 424.256 C 836.534 423.152 836.725 422.052 837.132 421.026 C 837.657 420.076 838.41 419.272 839.322 418.686 C 839.792 418.346 840.272 418.026 840.772 417.686 C 841.038 417.505 841.332 417.369 841.642 417.286 C 842.472 417.116 843.292 417.806 844.132 417.836 C 847.742 420.256 849.132 424.836 851.972 428.136 C 853.572 430.016 853.732 431.456 855.542 433.136 C 855.832 433.396 856.112 433.676 856.382 433.966 C 856.74 434.356 857.043 434.794 857.282 435.266 C 857.612 436.126 859.602 437.136 859.192 437.956 Z" fill="#3f3d56"/>
  <path d="M 894.652 435.496 C 896.142 438.646 897.302 442.106 896.872 445.566 C 896.784 446.503 896.487 447.409 896.002 448.216 C 894.562 450.426 891.542 450.826 888.912 450.956 C 887.793 450.862 886.683 451.222 885.832 451.956 C 885.11 453.006 885.188 454.412 886.022 455.376 C 886.868 456.278 887.917 456.964 889.082 457.376 C 893.242 459.206 897.732 460.716 902.252 460.296 C 904.352 460.096 906.392 459.486 908.482 459.176 C 910.761 458.929 913.051 458.802 915.342 458.796 C 918.062 458.696 920.772 458.426 923.482 458.156 L 930.662 457.446 C 931.055 457.451 931.436 457.313 931.732 457.056 C 932.262 456.436 931.582 455.526 930.922 455.056 C 927.112 452.236 922.262 450.296 920.092 446.056 C 919.092 444.056 918.782 441.676 918.042 439.516 C 917.302 437.356 916.122 435.406 915.662 433.206 C 915.417 431.276 915.307 429.331 915.332 427.386 C 915.358 425.424 914.644 423.525 913.332 422.066 C 911.902 420.736 909.832 420.396 907.892 420.316 C 903.112 420.106 898.022 421.246 894.632 424.616 C 893.722 425.526 892.942 426.616 892.002 427.436 C 891.062 428.256 889.782 428.496 890.402 429.576 C 891.022 430.656 892.242 431.326 892.902 432.276 C 893.571 433.301 894.156 434.378 894.652 435.496 Z" fill="#fbbebe"/>
  <path d="M 935.382 464.586 C 934.122 472.286 932.071 479.836 929.262 487.116 C 927.851 490.403 926.648 493.777 925.662 497.216 C 924.892 500.316 925.042 503.636 924.332 506.746 C 923.452 510.616 922.572 514.496 921.862 518.396 C 920.671 524.351 920.195 530.428 920.442 536.496 C 920.445 537.452 920.628 538.398 920.982 539.286 C 921.312 540.006 921.842 540.626 922.152 541.366 C 922.621 542.68 922.52 544.13 921.872 545.366 C 921.359 546.511 920.664 547.564 919.812 548.486 C 910.492 551.266 900.522 550.356 890.812 550.946 C 881.862 551.486 872.812 553.326 863.992 551.796 C 862.992 547.796 864.662 543.606 866.092 539.706 C 870.242 528.376 874.832 516.576 874.092 504.706 C 874.015 503.321 873.858 501.942 873.622 500.576 C 872.172 492.166 873.752 483.456 876.282 475.306 C 877.852 470.226 877.782 464.816 877.422 459.526 C 877.244 457.808 877.221 456.078 877.352 454.356 C 877.497 452.598 878.15 450.919 879.232 449.526 C 879.232 449.456 879.322 449.386 879.372 449.316 C 879.422 449.246 879.812 449.256 880.122 449.316 L 880.122 449.316 C 880.282 449.384 880.463 449.384 880.622 449.316 L 880.732 449.246 C 880.819 449.184 880.936 449.184 881.022 449.246 C 881.252 449.386 881.382 449.866 881.882 449.956 C 882.621 450.068 883.366 450.138 884.112 450.166 C 885.011 450.193 885.903 450.32 886.772 450.546 L 886.892 450.546 C 888.193 450.765 889.528 450.652 890.772 450.216 C 891.601 450.009 892.4 449.7 893.152 449.296 C 893.372 449.056 894.752 448.836 895.032 448.666 C 895.942 448.116 895.742 445.536 895.932 444.476 C 896.038 443.413 896.29 442.369 896.682 441.376 C 897.607 439.887 899.211 438.954 900.962 438.886 C 902.684 438.845 904.405 438.999 906.092 439.346 C 909.822 439.876 913.642 439.786 917.302 440.646 C 919.142 441.076 921.152 441.726 922.842 440.886 C 923.302 440.996 923.372 441.396 923.372 441.886 C 923.329 442.351 923.236 442.811 923.092 443.256 C 922.452 446.016 924.622 448.556 926.622 450.556 C 927.467 451.499 928.465 452.293 929.572 452.906 C 930.572 453.366 931.572 453.556 932.572 454.056 C 933.382 454.488 934.07 455.117 934.572 455.886 C 935.149 456.767 935.537 457.758 935.712 458.796 C 935.927 460.731 935.816 462.688 935.382 464.586 Z" fill="#3f3d56"/>
  <path d="M 935.382 464.586 C 934.122 472.286 932.071 479.836 929.262 487.116 C 927.851 490.403 926.648 493.777 925.662 497.216 C 924.892 500.316 925.042 503.636 924.332 506.746 C 923.452 510.616 922.572 514.496 921.862 518.396 C 921.652 518.516 921.432 518.626 921.212 518.726 C 919.968 519.32 918.65 519.744 917.292 519.986 C 914.855 520.281 912.386 520.2 909.972 519.746 L 895.702 517.836 C 890.002 517.066 883.932 516.136 879.702 512.276 C 877.352 510.156 875.812 507.356 874.122 504.656 C 874.045 503.271 873.888 501.892 873.652 500.526 C 872.202 492.116 873.782 483.406 876.312 475.256 C 877.882 470.176 877.812 464.766 877.452 459.476 C 877.274 457.758 877.251 456.028 877.382 454.306 C 877.527 452.548 878.18 450.869 879.262 449.476 C 879.555 449.39 879.852 449.323 880.152 449.276 L 880.152 449.276 C 880.354 449.235 880.558 449.208 880.762 449.196 L 881.052 449.196 C 881.389 449.197 881.725 449.237 882.052 449.316 C 882.734 449.533 883.402 449.79 884.052 450.086 L 884.172 450.086 C 885.03 450.368 885.93 450.497 886.832 450.466 C 888.152 450.466 889.512 450.256 890.832 450.166 C 892.463 449.911 894.132 450.21 895.572 451.016 C 896.502 451.763 897.384 452.568 898.212 453.426 C 899.213 454.212 900.339 454.824 901.542 455.236 C 910.15 458.522 919.7 458.321 928.162 454.676 C 928.975 454.214 929.898 453.979 930.832 453.996 C 931.523 454.131 932.177 454.41 932.752 454.816 C 933.352 455.166 933.942 455.506 934.552 455.816 C 935.129 456.697 935.517 457.688 935.692 458.726 C 935.922 460.683 935.817 462.664 935.382 464.586 Z" opacity="0.1"/>
  <path d="M 944.092 457.966 C 940.11 456.75 936.284 455.071 932.692 452.966 C 932.116 452.563 931.462 452.284 930.772 452.146 C 929.835 452.135 928.911 452.369 928.092 452.826 C 919.634 456.47 910.087 456.671 901.482 453.386 C 900.281 452.97 899.155 452.358 898.152 451.576 C 897.321 450.721 896.44 449.916 895.512 449.166 C 892.222 447.036 887.672 449.536 883.992 448.166 C 883.34 447.874 882.672 447.617 881.992 447.396 C 879.082 446.666 876.122 449.566 873.262 448.686 C 872.198 451.578 871.412 454.565 870.912 457.606 C 870.506 461.098 870.289 464.61 870.262 468.126 C 870.262 470.236 870.162 472.346 870.262 474.456 C 870.975 474.572 871.606 474.982 872.002 475.586 C 872.268 476.291 872.21 477.078 871.842 477.736 C 869.752 483.106 867.632 488.536 864.462 493.346 C 866.697 494.677 868.77 496.261 870.642 498.066 C 874.142 501.766 875.862 506.956 879.642 510.376 C 883.902 514.226 889.972 515.166 895.642 515.926 L 909.912 517.836 C 912.329 518.288 914.801 518.372 917.242 518.086 C 918.597 517.839 919.912 517.412 921.152 516.816 C 921.963 516.477 922.703 515.988 923.332 515.376 C 923.86 514.777 924.295 514.103 924.622 513.376 C 925.752 511.116 926.782 508.806 927.732 506.466 C 928.062 505.636 928.562 504.666 929.462 504.596 C 934.762 499.816 939.762 494.916 945.062 490.136 C 947.192 488.371 949.103 486.356 950.752 484.136 C 953.382 480.246 950.992 474.736 950.752 470.036 C 950.723 468.834 950.573 467.638 950.302 466.466 C 949.442 463.056 947.422 458.976 944.092 457.966 Z" fill="#f4a261"/>
  <path d="M 859.192 437.956 C 858.392 439.556 856.472 440.326 854.992 441.336 L 849.922 444.816 C 849.238 445.433 848.331 445.743 847.412 445.676 C 846.579 445.368 845.905 444.737 845.542 443.926 C 845.542 443.696 845.542 443.446 845.542 443.206 C 845.504 442.396 845.612 441.587 845.862 440.816 C 846.359 439.685 847.129 438.695 848.102 437.936 C 849.985 436.153 852.224 434.79 854.672 433.936 C 855.054 433.787 855.469 433.746 855.872 433.816 C 856.028 433.856 856.176 433.921 856.312 434.006 C 856.67 434.396 856.973 434.834 857.212 435.306 C 857.612 436.126 859.602 437.136 859.192 437.956 Z" opacity="0.1"/>
  <path d="M 871.132 448.496 C 869.432 448.416 868.042 447.186 866.802 446.016 L 863.012 442.496 C 862.759 442.281 862.537 442.032 862.352 441.756 C 862.148 441.367 861.993 440.954 861.892 440.526 C 861.089 438.506 859.83 436.699 858.212 435.246 C 857.931 434.888 857.553 434.617 857.122 434.466 C 856.716 434.391 856.296 434.432 855.912 434.586 C 853.464 435.438 851.224 436.802 849.342 438.586 C 848.369 439.346 847.6 440.335 847.102 441.466 C 846.851 442.236 846.743 443.046 846.782 443.856 C 846.806 446.498 847.399 449.104 848.522 451.496 C 848.692 451.866 848.882 452.236 849.082 452.596 C 850.417 454.801 851.993 456.85 853.782 458.706 L 856.162 461.366 C 858.502 463.986 860.842 466.606 863.382 469.016 C 864.293 469.987 865.397 470.757 866.622 471.276 C 867.877 471.788 869.313 471.556 870.342 470.676 C 870.822 470.121 871.182 469.475 871.402 468.776 C 872.942 464.776 874.402 460.616 874.492 456.306 C 874.514 454.58 874.441 452.854 874.272 451.136 C 874.122 449.316 872.832 448.606 871.132 448.496 Z" fill="#f4a261"/>
  <path d="M 931.732 588.496 C 931.674 598.555 930.96 608.6 929.592 618.566 C 929.392 620.176 929.172 621.786 929.062 623.396 C 928.732 628.066 929.272 632.756 928.832 637.396 C 928.602 639.906 928.082 642.396 927.642 644.846 C 925.688 655.781 925.117 666.918 925.942 677.996 C 927.322 696.426 923.092 714.866 925.012 733.246 C 925.245 736.82 925.047 740.409 924.422 743.936 C 924.065 746.124 923.547 748.283 922.872 750.396 C 921.412 755.403 919.946 760.403 918.472 765.396 C 918.299 766.155 917.957 766.866 917.472 767.476 C 916.44 768.368 915.074 768.773 913.722 768.586 C 907.952 768.406 902.522 765.916 897.282 763.486 C 896.68 763.248 896.122 762.91 895.632 762.486 C 894.542 761.356 894.632 759.576 894.152 758.086 C 893.672 756.596 892.372 755.196 891.632 753.666 C 891.024 752.219 890.656 750.682 890.542 749.116 C 889.876 743.996 889.422 738.856 889.182 733.696 C 888.802 726.436 893.602 719.756 895.182 712.696 C 898.182 698.816 895.642 683.936 900.972 670.766 C 902.652 666.606 900.212 661.566 899.972 657.086 C 899.886 654.196 899.511 651.321 898.852 648.506 C 897.852 644.746 895.742 641.206 895.592 637.306 C 895.482 634.486 896.392 631.736 896.862 628.956 C 897.486 624.865 897.429 620.698 896.692 616.626 C 896.162 613.266 895.352 609.906 894.542 606.626 L 894.362 606.996 C 891.926 611.758 889.831 616.687 888.092 621.746 C 887.292 624.196 886.592 626.696 885.592 629.076 C 884.772 631.076 883.762 632.906 882.772 634.786 C 879.222 641.416 876.131 648.282 873.522 655.336 C 872.282 658.796 871.192 662.336 870.112 665.806 L 862.702 689.806 C 860.702 696.116 858.512 702.216 856.552 708.516 C 853.782 717.516 851.012 726.436 847.792 735.236 C 844.792 743.586 841.222 752.236 842.292 761.056 C 839.535 762.352 836.507 762.966 833.462 762.846 C 828.309 762.39 823.252 761.163 818.462 759.206 C 816.552 758.496 814.572 757.696 813.282 756.126 C 811.062 753.416 811.612 749.446 812.282 745.996 C 812.535 744.441 812.937 742.914 813.482 741.436 C 814.242 739.596 815.482 737.966 816.262 736.146 C 817.832 732.656 817.932 728.706 818.552 724.916 C 819.172 721.126 820.552 717.126 823.792 715.066 C 824.342 708.406 827.082 701.836 828.592 695.326 C 829.732 690.396 830.112 685.326 831.012 680.326 C 831.912 675.326 833.362 670.326 836.382 666.276 C 836.144 662.1 837.087 657.941 839.102 654.276 C 839.589 653.471 839.988 652.616 840.292 651.726 C 840.479 650.857 840.586 649.974 840.612 649.086 C 840.943 645.611 842.429 642.347 844.832 639.816 C 843.832 636.166 845.222 632.356 846.472 628.816 C 848.047 624.299 848.759 619.526 848.572 614.746 C 848.417 613.411 848.482 612.06 848.762 610.746 C 849.042 609.746 849.592 608.896 849.912 607.936 C 850.198 606.76 850.349 605.556 850.362 604.346 C 850.752 598.936 852.942 593.836 855.362 589.006 C 856.802 586.186 855.582 582.356 855.882 579.216 C 856.402 573.996 856.972 568.596 859.562 564.046 C 860.042 563.186 860.562 562.366 860.992 561.476 C 861.514 560.205 861.795 558.849 861.822 557.476 C 861.912 555.186 862.232 553.286 861.412 551.156 C 866.762 546.706 874.062 545.456 881.022 545.156 C 887.982 544.856 895.022 545.486 901.832 544.006 C 903.832 543.556 905.832 542.936 907.942 542.636 C 912.732 541.936 917.592 543.026 922.322 544.106 C 921.992 547.106 923.092 549.986 924.322 552.776 C 929.125 564.077 931.643 576.217 931.732 588.496 Z" fill="#33313f"/>
  <path d="M 908.182 590.786 L 896.692 616.626 C 896.162 613.266 895.352 609.906 894.542 606.626 L 894.362 606.996 L 894.362 606.456 L 900.622 592.686 Z" opacity="0.1"/>
  <path d="M 942.612 536.806 C 941.95 537.302 941.158 537.597 940.332 537.656 C 939.066 537.701 937.801 537.528 936.592 537.146 L 927.592 534.896 C 927.31 534.826 927.036 534.729 926.772 534.606 C 926.922 533.036 927.222 531.216 928.072 530.606 C 929.342 529.756 933.142 530.896 934.582 531.096 C 937.062 531.436 939.582 531.836 942.002 532.306 C 942.378 533.778 942.582 535.287 942.612 536.806 Z" opacity="0.1"/>
  <path d="M 950.222 477.306 C 950.412 478.136 950.682 478.956 950.842 479.796 C 951.112 481.857 951.041 483.948 950.632 485.986 L 949.812 491.706 L 948.992 497.456 L 945.822 519.586 L 945.042 525.066 L 943.942 532.716 C 943.891 533.352 943.728 533.975 943.462 534.556 C 942.797 535.66 941.621 536.355 940.332 536.406 C 939.066 536.446 937.802 536.274 936.592 535.896 L 927.592 533.636 C 927.198 533.566 926.823 533.412 926.492 533.186 C 925.933 532.639 925.711 531.832 925.912 531.076 C 926.042 530.316 926.372 529.606 926.482 528.846 C 926.702 527.366 926.082 525.846 926.302 524.376 C 926.518 523.44 926.854 522.536 927.302 521.686 C 930.302 515.056 928.562 507.316 929.582 500.116 C 930.5 494.449 932.894 489.124 936.522 484.676 C 938.762 481.868 941.334 479.343 944.182 477.156 C 945.302 476.286 947.082 474.496 948.492 474.156 C 950.302 473.776 949.922 476.046 950.222 477.306 Z" fill="#f4a261"/>
  <path d="M 882.112 391.166 C 881.452 393.266 882.482 395.576 882.012 397.716 C 881.502 400.076 879.282 401.716 878.652 404.086 C 877.652 407.696 880.712 410.986 882.952 413.986 C 891.252 425.126 890.162 440.546 887.322 454.136 C 885.037 465.039 881.877 475.74 877.872 486.136 C 876.622 489.366 875.242 492.646 872.782 495.066 C 877.382 493.746 882.272 492.416 886.882 493.696 C 892.722 495.316 897.762 500.986 903.682 499.696 C 907.242 498.906 909.742 495.746 912.942 493.996 C 918.942 490.766 926.172 492.796 932.862 493.836 C 934.304 494.176 935.813 494.1 937.212 493.616 C 938.283 493.041 939.191 492.205 939.852 491.186 C 942.838 487.355 944.626 482.729 944.992 477.886 C 945.313 473.008 943.525 468.227 940.082 464.756 C 938.662 463.416 936.962 462.336 935.872 460.756 C 934.812 458.911 934.244 456.824 934.222 454.696 C 933.432 443.696 936.112 432.466 933.352 421.826 C 932.352 418.036 930.722 414.406 930.282 410.526 C 929.732 405.696 931.042 400.526 929.122 396.106 C 927.612 392.596 924.282 390.106 920.692 388.826 C 917.102 387.546 913.262 387.186 909.452 386.826 C 903.972 386.366 884.402 384.016 882.112 391.166 Z" fill="#33313f"/>
  <g opacity="0.1" transform="matrix(1, 0, 0, 1, 30.432957, -35.044006)">
    <path d="M873.8,536.64a206.9,206.9,0,0,1-9.4,31.87c.69-1.37,1.27-2.81,1.82-4.24a206.21,206.21,0,0,0,9.45-32c2.85-13.6,3.94-29-4.36-40.15-2-2.66-4.57-5.54-4.48-8.66a10.66,10.66,0,0,0-1.7,3.14c-1,3.61,2.06,6.9,4.3,9.9C877.73,507.63,876.64,523.05,873.8,536.64Z" transform="translate(-16.91 -47.46)"/>
    <path d="M868.61,479.21a9.73,9.73,0,0,0,1.76-3.37,17.13,17.13,0,0,0-.12-4.46,4.81,4.81,0,0,0-1.66,2.29C868,475.44,868.68,477.36,868.61,479.21Z" transform="translate(-16.91 -47.46)"/>
    <path d="M928.21,569.29a7.2,7.2,0,0,1-2.64,2.42,7.64,7.64,0,0,1-4.35.22c-6.69-1-14-3.06-19.92.17-3.21,1.74-5.7,4.9-9.27,5.7-5.91,1.32-10.95-4.35-16.79-6-4.14-1.15-8.5-.2-12.67,1a17.47,17.47,0,0,1-3.31,4.78c4.6-1.32,9.49-2.65,14.1-1.37,5.84,1.62,10.88,7.29,16.8,6,3.56-.79,6.06-3.95,9.26-5.7,6-3.23,13.23-1.2,19.92-.16a7.82,7.82,0,0,0,4.35-.22,7.23,7.23,0,0,0,2.64-2.43,26.88,26.88,0,0,0,4.14-7.92A29.08,29.08,0,0,1,928.21,569.29Z" transform="translate(-16.91 -47.46)"/>
  </g>
</svg>